HIERARCHY
ROOT SpineBase
{
  OFFSET 0.000000 0.000000 0.000000
  CHANNELS 6 Xposition Yposition Zposition Zrotation Xrotation Yrotation
  JOINT SpineMid
  {
    OFFSET -0.000000 30.371255 0.000000
    CHANNELS 3 Zrotation Xrotation Yrotation
    JOINT SpineShoulder
    {
      OFFSET -0.052388 22.524103 -1.011900
      CHANNELS 3 Zrotation Xrotation Yrotation
      JOINT Neck
      {
        OFFSET -0.072529 7.427894 -0.681573
        CHANNELS 3 Zrotation Xrotation Yrotation
        JOINT Head
        {
          OFFSET -1.114743 13.482704 -1.311881
          CHANNELS 3 Zrotation Xrotation Yrotation
          End Site
          {
            OFFSET 0 0 0
          }
        }
      }
      JOINT ShoulderLeft
      {
        OFFSET -16.143677 -4.661627 5.979010
        CHANNELS 3 Zrotation Xrotation Yrotation
        JOINT ElbowLeft
        {
          OFFSET -1.723942 -25.730124 -1.369836
          CHANNELS 3 Zrotation Xrotation Yrotation
          JOINT WristLeft
          {
            OFFSET -0.768576 -23.926525 -5.434156
            CHANNELS 3 Zrotation Xrotation Yrotation
            JOINT HandLeft
            {
              OFFSET 0.953222 -5.381362 -1.610946
              CHANNELS 3 Zrotation Xrotation Yrotation
              JOINT HandTipLeft
              {
                OFFSET -0.655779 -5.792525 -0.883698
                CHANNELS 3 Zrotation Xrotation Yrotation
                End Site
                {
                  OFFSET 0 0 0
                }
              }
              JOINT ThumbLeft
              {
                OFFSET -4.783089 1.388482 -1.263407
                CHANNELS 3 Zrotation Xrotation Yrotation
                End Site
                {
                  OFFSET 0 0 0
                }
              }
            }
          }
        }
      }
      JOINT ShoulderRight
      {
        OFFSET 16.031848 -3.418167 -5.699047
        CHANNELS 3 Zrotation Xrotation Yrotation
        JOINT ElbowRight
        {
          OFFSET 5.263687 -25.060009 -0.263520
          CHANNELS 3 Zrotation Xrotation Yrotation
          JOINT WristRight
          {
            OFFSET 0.026053 -22.082353 -6.144302
            CHANNELS 3 Zrotation Xrotation Yrotation
            JOINT HandRight
            {
              OFFSET -2.412390 -5.491362 -1.301872
              CHANNELS 3 Zrotation Xrotation Yrotation
              JOINT HandTipRight
              {
                OFFSET -1.132702 -7.173810 -2.937361
                CHANNELS 3 Zrotation Xrotation Yrotation
                End Site
                {
                  OFFSET 0 0 0
                }
              }
              JOINT ThumbRight
              {
                OFFSET -3.302155 1.129159 1.065434
                CHANNELS 3 Zrotation Xrotation Yrotation
                End Site
                {
                  OFFSET 0 0 0
                }
              }
            }
          }
        }
      }
    }
  }
  JOINT HipLeft
  {
    OFFSET -7.557817 0.065696 -1.659409
    CHANNELS 3 Zrotation Xrotation Yrotation
    JOINT KneeLeft
    {
      OFFSET 0.485526 -35.719616 4.026884
      CHANNELS 3 Zrotation Xrotation Yrotation
      JOINT AnkleLeft
      {
        OFFSET 1.356942 -32.109825 7.306122
        CHANNELS 3 Zrotation Xrotation Yrotation
        JOINT FootLeft
        {
          OFFSET 11.756675 -2.884628 -8.663551
          CHANNELS 3 Zrotation Xrotation Yrotation
          End Site
          {
            OFFSET 0 0 0
          }
        }
      }
    }
  }
  JOINT HipRight
  {
    OFFSET 6.031858 0.919876 -5.984974
    CHANNELS 3 Zrotation Xrotation Yrotation
    JOINT KneeRight
    {
      OFFSET 2.452121 -36.352155 0.716747
      CHANNELS 3 Zrotation Xrotation Yrotation
      JOINT AnkleRight
      {
        OFFSET 3.894195 -31.345221 5.742537
        CHANNELS 3 Zrotation Xrotation Yrotation
        JOINT FootRight
        {
          OFFSET -6.546219 -5.538027 1.273950
          CHANNELS 3 Zrotation Xrotation Yrotation
          End Site
          {
            OFFSET 0 0 0
          }
        }
      }
    }
  }
}
MOTION
Frames: 5
Frame Time: 0.033333
81.781882 72.806785 393.754270 0.025950 -0.831382 33.006294 0.431139 0.711336 -33.008782 -0.000000 0.000000 0.000000 11.812789 1.634657 1.111527 0.000000 0.000000 0.000000 -0.866462 -6.294729 0.421681 0.467949 2.998195 -0.280769 -14.125975 2.395691 4.841787 25.193789 2.816484 -6.572837 0.000000 0.000000 0.000000 0.000000 0.000000 0.000000 3.965089 5.459121 0.909605 -8.150117 -8.507386 -0.674645 12.482071 -8.701169 2.474012 -5.593048 -3.772851 -1.343701 0.000000 0.000000 0.000000 0.000000 0.000000 0.000000 4.175175 0.103506 -32.622780 3.228077 2.828859 1.181165 -26.972691 -18.609358 63.434816 0.000000 0.000000 0.000000 5.383945 0.622321 -32.806909 -0.497239 -1.208473 0.622254 17.164691 3.533850 -3.141315 0.000000 0.000000 0.000000
81.586184 72.801342 393.883560 0.016730 -0.837763 33.052703 0.442924 0.711305 -33.055330 -0.000000 0.000000 0.000000 11.932899 2.314985 1.107323 0.000000 0.000000 0.000000 -0.836890 -5.725821 0.387499 0.479159 2.086057 -0.243499 -13.363876 4.464847 5.124001 26.784774 3.652863 -7.038935 0.000000 0.000000 0.000000 0.000000 0.000000 0.000000 4.159440 5.479914 0.901641 -7.988109 -8.889322 -0.758274 13.081839 -8.745052 2.563578 -6.882148 -3.971450 -0.882656 0.000000 0.000000 0.000000 0.000000 0.000000 0.000000 4.159340 0.147185 -32.675654 3.659475 3.052106 1.268435 -27.450246 -19.131982 68.560509 0.000000 0.000000 0.000000 5.612023 0.728694 -32.844194 -0.466237 -1.386208 0.645147 14.344721 11.408855 -17.322185 0.000000 0.000000 0.000000
81.383462 72.812232 394.055037 -0.002548 -0.849893 33.164334 0.467084 0.710048 -33.167247 -0.000000 0.000000 0.000000 11.921886 3.037056 1.091547 0.000000 0.000000 0.000000 -0.577319 -5.087912 0.346907 0.052872 1.318303 -0.124820 -12.141844 6.343477 5.178702 26.453686 4.681856 -7.182810 0.000000 0.000000 0.000000 0.000000 0.000000 0.000000 4.326426 5.525656 0.899516 -7.805477 -9.171960 -0.841002 12.940697 -7.909743 2.258346 -6.740006 -3.122566 -0.999116 0.000000 0.000000 0.000000 0.000000 0.000000 0.000000 4.176970 0.282725 -32.799642 4.204067 3.341418 1.380832 -28.446901 -20.378756 68.084344 0.000000 0.000000 0.000000 5.928819 0.850596 -32.943844 -0.550625 -1.645821 0.647802 13.822716 15.645434 -24.665457 0.000000 0.000000 0.000000
81.180961 72.827559 394.195663 -0.015404 -0.821403 33.285495 0.463694 0.678188 -33.288349 -0.000000 0.000000 0.000000 11.793343 3.797799 1.067600 0.000000 0.000000 0.000000 -0.193273 -4.637102 0.313965 -0.601221 0.868424 0.013784 -11.650316 7.917951 5.449354 26.255976 3.841452 -7.016454 0.000000 0.000000 0.000000 0.000000 0.000000 0.000000 4.569596 5.516579 0.883398 -7.706223 -9.097408 -0.895939 12.769886 -7.663632 2.180845 -7.287684 -2.667249 -0.749439 0.000000 0.000000 0.000000 0.000000 0.000000 0.000000 4.172095 0.341538 -32.926616 4.739498 3.685621 1.488619 -29.494850 -21.111196 62.128811 0.000000 0.000000 0.000000 6.143404 0.934274 -33.053061 -0.524882 -1.920125 0.661161 12.254319 26.734183 -43.076762 0.000000 0.000000 0.000000
81.012861 72.830799 394.352572 0.027869 -0.735693 33.342286 0.381099 0.629913 -33.344202 -0.000000 0.000000 0.000000 11.551901 4.358849 1.042390 0.000000 0.000000 0.000000 0.458041 -4.270454 0.279578 -1.561657 0.808393 0.169451 -9.893800 8.484222 4.953606 25.467145 3.262529 -6.663738 0.000000 0.000000 0.000000 0.000000 0.000000 0.000000 4.751046 5.686524 0.900973 -7.652964 -9.149548 -0.987249 12.148981 -7.182155 2.036255 -4.228872 -3.416610 -1.984270 0.000000 0.000000 0.000000 0.000000 0.000000 0.000000 4.074100 0.410778 -32.990648 5.265043 4.094441 1.589431 -30.165663 -20.843606 51.456329 0.000000 0.000000 0.000000 6.196716 0.998133 -33.099005 -0.497824 -2.004181 0.678005 10.644106 33.655117 -53.677215 0.000000 0.000000 0.000000
